<?xml version="1.0" standalone="no"?>
<!DOCTYPE svg PUBLIC "-//W3C//DTD SVG 20010904//EN"
 "http://www.w3.org/TR/2001/REC-SVG-20010904/DTD/svg10.dtd">
<svg version="1.0" xmlns="http://www.w3.org/2000/svg"
 width="1000.000000pt" height="1000.000000pt" viewBox="0 0 1000.000000 1000.000000"
 preserveAspectRatio="xMidYMid meet">

<g transform="translate(0.000000,1000.000000) scale(0.100000,-0.100000)"
fill="#000000" stroke="none">
<path d="M4720 7549 c-154 -21 -270 -43 -345 -66 -44 -13 -100 -30 -125 -38
-251 -74 -618 -282 -805 -456 -40 -36 -78 -70 -86 -75 -35 -22 -225 -245 -292
-342 -90 -131 -120 -182 -175 -297 -125 -260 -167 -402 -212 -715 -48 -334 4
-771 127 -1075 71 -174 190 -401 242 -460 10 -11 35 -46 55 -77 78 -120 347
-386 471 -467 22 -14 56 -38 75 -53 91 -69 408 -238 447 -238 10 0 374 -387
492 -524 25 -28 74 -83 110 -121 36 -39 118 -128 181 -198 63 -70 120 -126
127 -125 7 2 137 138 289 303 153 165 364 393 471 506 192 205 194 207 289
254 118 58 285 170 424 283 318 261 560 616 690 1014 120 366 147 710 85 1068
-46 261 -164 594 -263 743 -15 23 -33 53 -39 67 -21 50 -222 306 -309 395
-304 309 -684 527 -1114 639 -111 28 -125 31 -285 51 -130 16 -418 18 -525 4z
m455 -264 c245 -23 372 -54 612 -150 269 -108 563 -313 748 -520 150 -169 286
-381 369 -575 111 -261 168 -607 146 -888 -21 -282 -77 -486 -197 -730 -113
-229 -204 -355 -392 -543 -144 -144 -207 -191 -436 -332 -54 -33 -275 -134
-332 -151 -23 -7 -23 -6 -23 94 0 87 2 101 18 107 101 35 278 123 367 181 279
184 504 439 655 742 44 86 113 299 141 435 20 95 24 139 24 325 0 187 -3 229
-23 325 -68 324 -199 594 -400 829 -278 323 -630 531 -1075 633 -118 27 -131
28 -397 28 -273 0 -276 0 -410 -32 -386 -90 -703 -263 -965 -527 -202 -203
-348 -442 -440 -721 -73 -218 -97 -439 -76 -692 39 -466 267 -896 642 -1214
37 -31 119 -91 184 -134 112 -74 171 -104 367 -182 l87 -34 -6 -97 c-3 -53 -7
-99 -9 -101 -4 -5 -134 43 -249 91 -101 42 -222 108 -301 164 -33 24 -71 47
-85 52 -25 10 -279 227 -279 240 -1 4 -31 39 -68 79 -209 221 -409 632 -457
933 -50 320 -33 670 46 916 120 380 322 689 615 945 171 149 356 264 559 347
238 98 388 136 615 157 187 17 236 17 425 0z m-160 -371 c8 -4 22 -19 30 -34
12 -24 26 -30 92 -45 121 -26 321 -93 398 -134 39 -20 92 -57 119 -83 31 -30
59 -48 73 -48 13 0 39 -6 57 -14 35 -15 52 -51 41 -87 -4 -12 11 -48 44 -103
143 -243 193 -431 191 -726 0 -91 -2 -176 -3 -189 -2 -20 4 -26 30 -33 37 -10
73 -51 73 -84 0 -13 -13 -38 -29 -56 l-29 -33 -224 -6 -223 -5 -99 -42 c-129
-55 -222 -78 -397 -98 -124 -15 -162 -15 -274 -5 -71 7 -165 19 -208 27 -76
15 -267 78 -326 109 -24 12 -70 15 -231 15 -212 0 -246 6 -284 48 -26 30 -14
68 39 115 l44 39 -6 162 c-9 254 17 426 92 612 19 47 48 106 65 131 25 37 32
58 33 106 3 72 26 97 91 97 37 0 54 9 136 71 156 118 363 207 521 225 52 6 62
10 74 34 19 37 50 49 90 34z m793 -1971 c1 -51 5 -93 7 -93 2 0 26 12 52 26
34 18 57 24 77 20 56 -12 56 -9 56 -262 0 -229 0 -233 -22 -248 -37 -26 -74
-20 -110 18 l-33 35 -11 -102 c-9 -92 -14 -109 -52 -173 -22 -39 -61 -93 -86
-121 l-46 -51 0 -355 0 -355 97 -7 c53 -4 118 -10 145 -14 l47 -6 -52 -62
c-29 -34 -119 -133 -202 -221 -82 -87 -197 -210 -255 -273 -295 -320 -411
-440 -419 -437 -8 3 -167 176 -395 428 -82 91 -163 179 -180 196 -17 16 -42
43 -54 60 -13 16 -54 61 -91 99 -80 84 -181 200 -181 209 0 3 63 6 139 6 l140
0 5 53 c3 28 8 192 11 363 l6 312 -41 38 c-23 22 -66 75 -96 119 l-54 80 0
108 0 107 -42 -30 c-49 -36 -92 -39 -125 -8 -23 21 -23 24 -23 241 0 191 2
223 17 239 22 24 87 24 128 -2 l32 -20 7 31 c3 17 6 51 6 75 l0 44 49 0 c34 0
78 -11 138 -36 128 -51 380 -111 527 -124 266 -24 552 38 776 170 22 13 48 20
70 18 l35 -3 3 -92z"/>
</g>
</svg>
